<?xml version="1.0" standalone="no"?>
<!DOCTYPE svg PUBLIC "-//W3C//DTD SVG 20010904//EN"
 "http://www.w3.org/TR/2001/REC-SVG-20010904/DTD/svg10.dtd">
<svg version="1.0" xmlns="http://www.w3.org/2000/svg"
 width="994.000000pt" height="994.000000pt" viewBox="0 0 994.000000 994.000000"
 preserveAspectRatio="xMidYMid meet">
<metadata>
Created by potrace 1.14, written by Peter Selinger 2001-2017
</metadata>
<g transform="translate(0.000000,994.000000) scale(0.100000,-0.100000)"
fill="#000000" stroke="none">
<path d="M6659 9452 c-10 -1 -21 -19 -27 -40 -5 -20 -58 -208 -117 -417 -59
-209 -108 -387 -110 -395 -2 -8 -20 -71 -40 -140 -20 -69 -38 -132 -40 -140
-6 -25 -165 -591 -186 -660 -10 -36 -53 -186 -95 -335 -41 -148 -91 -326 -110
-395 -19 -69 -37 -132 -39 -140 -2 -8 -47 -168 -100 -355 -95 -334 -163 -575
-170 -605 -2 -8 -14 -49 -25 -90 -12 -41 -60 -210 -106 -375 -46 -165 -93
-331 -105 -370 -24 -83 -29 -97 -34 -122 -2 -10 -27 -99 -55 -198 -29 -99 -53
-187 -55 -195 -2 -8 -31 -112 -64 -230 -34 -118 -66 -233 -72 -255 -6 -22 -15
-51 -20 -65 -4 -14 -31 -108 -59 -210 -28 -102 -72 -257 -97 -345 -25 -88 -46
-164 -48 -170 -1 -5 -8 -30 -15 -55 -7 -25 -14 -49 -15 -55 -2 -5 -40 -140
-85 -300 -45 -159 -84 -297 -86 -305 -2 -8 -27 -96 -55 -195 -28 -99 -57 -202
-64 -230 -7 -27 -36 -129 -63 -225 -28 -96 -78 -274 -112 -395 -34 -121 -82
-292 -107 -380 -24 -88 -48 -173 -53 -190 -5 -16 -29 -102 -53 -190 -25 -88
-48 -168 -52 -177 -7 -17 25 -18 584 -18 l590 0 20 68 c11 37 27 94 36 127 9
33 18 67 20 75 2 8 11 38 19 65 19 67 113 403 182 650 30 110 64 229 74 265
11 36 39 137 64 225 163 585 248 888 251 892 1 2 63 18 138 38 300 77 709 216
867 295 19 10 38 18 42 19 13 2 119 51 253 117 259 127 510 276 785 467 611
425 1062 887 1381 1412 130 216 260 499 338 738 64 197 100 344 126 507 3 19
7 46 10 60 26 141 26 678 0 720 -2 3 -6 30 -10 60 -4 30 -9 58 -11 61 -2 3 -6
21 -9 40 -3 19 -15 66 -27 104 -12 39 -23 76 -24 83 -12 64 -133 331 -207 457
-239 406 -668 794 -1142 1033 -248 125 -566 233 -855 291 -30 6 -66 14 -80 16
-43 9 -292 44 -360 50 -36 4 -81 8 -100 11 -19 2 -105 6 -190 10 -85 3 -168 6
-185 8 -16 1 -37 0 -46 -2z m1026 -1402 c310 -150 605 -399 773 -650 123 -185
203 -397 237 -625 13 -86 12 -300 -1 -402 -99 -744 -579 -1388 -1422 -1905
-267 -164 -624 -327 -898 -411 l-81 -24 23 73 c13 40 26 83 28 96 5 23 28 104
156 553 39 138 72 257 74 266 5 20 91 322 116 409 11 36 31 108 45 160 14 52
30 109 36 125 5 17 43 152 85 300 41 149 99 356 129 460 30 105 78 278 109
385 30 107 84 299 120 425 35 127 103 367 150 535 48 168 88 310 90 317 6 15
74 -10 231 -87z"/>
<path d="M5195 9439 c-89 -8 -177 -19 -201 -23 -11 -2 -53 -9 -94 -16 -103
-16 -214 -40 -332 -70 -56 -15 -314 -98 -353 -115 -16 -7 -82 -34 -145 -60
-201 -82 -442 -212 -675 -363 -91 -59 -328 -232 -382 -278 -12 -11 -32 -28
-45 -38 -107 -88 -165 -142 -313 -290 -381 -382 -650 -793 -823 -1258 -56
-150 -112 -338 -128 -428 -3 -14 -7 -32 -9 -40 -5 -15 -8 -41 -25 -175 -9 -72
-6 -428 4 -443 3 -5 8 -34 12 -63 11 -94 71 -311 118 -429 71 -175 169 -348
265 -470 20 -25 39 -49 43 -55 4 -5 18 -23 31 -40 99 -129 287 -391 322 -450
63 -107 126 -281 140 -389 3 -17 7 -42 10 -56 3 -14 6 -79 6 -145 1 -108 -3
-158 -16 -235 -2 -14 -7 -45 -11 -70 -3 -24 -7 -47 -9 -51 -2 -3 -7 -20 -10
-37 -14 -81 -94 -296 -156 -420 -159 -321 -384 -583 -719 -838 -272 -206 -577
-353 -883 -423 -71 -17 -115 -24 -272 -46 -16 -2 -73 -7 -125 -11 -52 -3 -96
-7 -96 -8 -1 0 -45 -156 -99 -346 -53 -190 -124 -439 -156 -554 -33 -115 -57
-211 -55 -214 11 -10 353 9 406 23 8 2 42 6 75 10 221 23 668 146 890 245 257
115 359 166 520 263 215 129 527 352 661 472 361 323 581 575 788 905 59 93
189 345 244 470 57 131 139 384 171 525 21 94 21 92 39 245 10 81 8 369 -2
435 -37 227 -75 369 -146 539 -82 197 -148 299 -451 700 -198 262 -252 354
-304 516 -66 211 -68 467 -6 725 33 134 101 329 150 425 177 347 420 624 781
891 76 56 230 154 285 182 259 130 529 219 740 243 33 3 68 8 77 10 10 1 64 6
120 10 57 3 103 7 104 8 1 0 31 107 67 236 150 534 238 846 243 863 5 16 -3
17 -98 15 -57 -1 -134 -5 -173 -9z"/>
</g>
</svg>
